<mxfile host="app.diagrams.net" agent="Mozilla/5.0 (Windows NT 10.0; Win64; x64) AppleWebKit/537.36 (KHTML, like Gecko) Chrome/135.0.0.0 Safari/537.36 Edg/135.0.0.0" version="26.2.12">
  <diagram id="KUXcLtYbqmfW_uUnK9HM" name="Página-1">
    <mxGraphModel dx="1420" dy="794" grid="1" gridSize="10" guides="1" tooltips="1" connect="1" arrows="1" fold="1" page="1" pageScale="1" pageWidth="1100" pageHeight="850" math="0" shadow="0">
      <root>
        <mxCell id="0" />
        <mxCell id="1" parent="0" />
        <mxCell id="1ziUDIRCh945kT0CxWAz-1" value="Fluxo de criação de contato e envio do webhook" style="swimlane;html=1;childLayout=stackLayout;startSize=20;rounded=0;shadow=0;labelBackgroundColor=none;strokeWidth=1;fontFamily=Verdana;fontSize=8;align=center;" vertex="1" parent="1">
          <mxGeometry x="80" y="50" width="820" height="750" as="geometry" />
        </mxCell>
        <mxCell id="1ziUDIRCh945kT0CxWAz-2" value="CLIENTE" style="swimlane;html=1;startSize=20;" vertex="1" parent="1ziUDIRCh945kT0CxWAz-1">
          <mxGeometry y="20" width="160" height="730" as="geometry" />
        </mxCell>
        <mxCell id="1ziUDIRCh945kT0CxWAz-3" value="Chama endpoint&lt;div&gt;/management/create-contact&lt;/div&gt;&lt;div&gt;com os dados json para criação do contato&lt;/div&gt;" style="rounded=1;whiteSpace=wrap;html=1;shadow=0;labelBackgroundColor=none;strokeWidth=1;fontFamily=Verdana;fontSize=8;align=center;" vertex="1" parent="1ziUDIRCh945kT0CxWAz-2">
          <mxGeometry x="20" y="65" width="100" height="60" as="geometry" />
        </mxCell>
        <mxCell id="1ziUDIRCh945kT0CxWAz-10" value="API" style="swimlane;html=1;startSize=20;" vertex="1" parent="1ziUDIRCh945kT0CxWAz-1">
          <mxGeometry x="160" y="20" width="180" height="730" as="geometry" />
        </mxCell>
        <mxCell id="1ziUDIRCh945kT0CxWAz-11" value="Recebe o json, monta a requisição e valida se o token que esta na base ainda é valido." style="rounded=1;whiteSpace=wrap;html=1;shadow=0;labelBackgroundColor=none;strokeWidth=1;fontFamily=Verdana;fontSize=8;align=center;" vertex="1" parent="1ziUDIRCh945kT0CxWAz-10">
          <mxGeometry x="30" y="155" width="100" height="60" as="geometry" />
        </mxCell>
        <mxCell id="1ziUDIRCh945kT0CxWAz-32" style="edgeStyle=orthogonalEdgeStyle;rounded=0;orthogonalLoop=1;jettySize=auto;html=1;exitX=0.5;exitY=1;exitDx=0;exitDy=0;entryX=0.5;entryY=0;entryDx=0;entryDy=0;" edge="1" parent="1ziUDIRCh945kT0CxWAz-10" source="1ziUDIRCh945kT0CxWAz-27" target="1ziUDIRCh945kT0CxWAz-4">
          <mxGeometry relative="1" as="geometry" />
        </mxCell>
        <mxCell id="1ziUDIRCh945kT0CxWAz-27" value="token valido?" style="rhombus;whiteSpace=wrap;html=1;" vertex="1" parent="1ziUDIRCh945kT0CxWAz-10">
          <mxGeometry x="30" y="290" width="100" height="80" as="geometry" />
        </mxCell>
        <mxCell id="1ziUDIRCh945kT0CxWAz-4" value="API faz a renovação do token&amp;nbsp; através da url de token da HubSpot" style="rounded=1;whiteSpace=wrap;html=1;shadow=0;labelBackgroundColor=none;strokeWidth=1;fontFamily=Verdana;fontSize=8;align=center;" vertex="1" parent="1ziUDIRCh945kT0CxWAz-10">
          <mxGeometry x="30" y="430" width="100" height="60" as="geometry" />
        </mxCell>
        <mxCell id="1ziUDIRCh945kT0CxWAz-36" value="&lt;font size=&quot;1&quot;&gt;API recebe o refresh, atualiza na base e faz o envio da criação do contato na HubSpot&lt;/font&gt;" style="rounded=1;whiteSpace=wrap;html=1;" vertex="1" parent="1ziUDIRCh945kT0CxWAz-10">
          <mxGeometry x="30" y="510" width="120" height="60" as="geometry" />
        </mxCell>
        <mxCell id="1ziUDIRCh945kT0CxWAz-47" value="API recebe o evento, valida a assinatura&amp;nbsp;&lt;div&gt;e completa o fluxo.&lt;/div&gt;" style="rounded=1;whiteSpace=wrap;html=1;" vertex="1" parent="1ziUDIRCh945kT0CxWAz-10">
          <mxGeometry x="30" y="640" width="120" height="60" as="geometry" />
        </mxCell>
        <mxCell id="1ziUDIRCh945kT0CxWAz-13" value="BASE" style="swimlane;html=1;startSize=20;" vertex="1" parent="1ziUDIRCh945kT0CxWAz-1">
          <mxGeometry x="340" y="20" width="160" height="730" as="geometry" />
        </mxCell>
        <mxCell id="1ziUDIRCh945kT0CxWAz-18" value="busca token" style="rounded=1;whiteSpace=wrap;html=1;" vertex="1" parent="1ziUDIRCh945kT0CxWAz-13">
          <mxGeometry x="17" y="210" width="120" height="60" as="geometry" />
        </mxCell>
        <mxCell id="1ziUDIRCh945kT0CxWAz-17" value="CONTACT/SECURITY" style="swimlane;html=1;startSize=20;" vertex="1" parent="1ziUDIRCh945kT0CxWAz-1">
          <mxGeometry x="500" y="20" width="160" height="730" as="geometry" />
        </mxCell>
        <mxCell id="1ziUDIRCh945kT0CxWAz-14" value="HubSpot recebe o json de criação do contato&lt;div&gt;e envia o webhook&lt;/div&gt;" style="rounded=1;whiteSpace=wrap;html=1;shadow=0;labelBackgroundColor=none;strokeWidth=1;fontFamily=Verdana;fontSize=8;align=center;" vertex="1" parent="1ziUDIRCh945kT0CxWAz-17">
          <mxGeometry x="40" y="315" width="100" height="60" as="geometry" />
        </mxCell>
        <mxCell id="1ziUDIRCh945kT0CxWAz-33" value="&lt;font style=&quot;font-size: 8px;&quot;&gt;HubSpot gera o&amp;nbsp;&lt;/font&gt;&lt;div&gt;&lt;span style=&quot;font-size: 8px;&quot;&gt;refreshtoken de cordo&lt;/span&gt;&lt;/div&gt;&lt;div&gt;&lt;span style=&quot;font-size: 8px;&quot;&gt;com os scopes&amp;nbsp;&lt;/span&gt;&lt;/div&gt;&lt;div&gt;&lt;span style=&quot;font-size: 8px;&quot;&gt;solocitados e retorna para a API&lt;/span&gt;&lt;/div&gt;" style="rounded=1;whiteSpace=wrap;html=1;" vertex="1" parent="1ziUDIRCh945kT0CxWAz-17">
          <mxGeometry x="40" y="420" width="110" height="80" as="geometry" />
        </mxCell>
        <mxCell id="1ziUDIRCh945kT0CxWAz-38" value="HubSpot recebe o json de criação do contato&lt;div&gt;e envia o webhook&lt;/div&gt;" style="rounded=1;whiteSpace=wrap;html=1;shadow=0;labelBackgroundColor=none;strokeWidth=1;fontFamily=Verdana;fontSize=8;align=center;" vertex="1" parent="1ziUDIRCh945kT0CxWAz-17">
          <mxGeometry x="20" y="570" width="100" height="60" as="geometry" />
        </mxCell>
        <mxCell id="1ziUDIRCh945kT0CxWAz-19" style="edgeStyle=orthogonalEdgeStyle;rounded=0;orthogonalLoop=1;jettySize=auto;html=1;exitX=1;exitY=0.5;exitDx=0;exitDy=0;entryX=0.5;entryY=0;entryDx=0;entryDy=0;" edge="1" parent="1ziUDIRCh945kT0CxWAz-1" source="1ziUDIRCh945kT0CxWAz-3" target="1ziUDIRCh945kT0CxWAz-11">
          <mxGeometry relative="1" as="geometry" />
        </mxCell>
        <mxCell id="1ziUDIRCh945kT0CxWAz-28" style="edgeStyle=orthogonalEdgeStyle;rounded=0;orthogonalLoop=1;jettySize=auto;html=1;exitX=1;exitY=0.5;exitDx=0;exitDy=0;entryX=0;entryY=0.25;entryDx=0;entryDy=0;" edge="1" parent="1ziUDIRCh945kT0CxWAz-1" source="1ziUDIRCh945kT0CxWAz-27" target="1ziUDIRCh945kT0CxWAz-14">
          <mxGeometry relative="1" as="geometry">
            <mxPoint x="364" y="289" as="targetPoint" />
          </mxGeometry>
        </mxCell>
        <mxCell id="1ziUDIRCh945kT0CxWAz-29" style="edgeStyle=orthogonalEdgeStyle;rounded=0;orthogonalLoop=1;jettySize=auto;html=1;exitX=0.5;exitY=1;exitDx=0;exitDy=0;entryX=0;entryY=0.5;entryDx=0;entryDy=0;" edge="1" parent="1ziUDIRCh945kT0CxWAz-1" source="1ziUDIRCh945kT0CxWAz-11" target="1ziUDIRCh945kT0CxWAz-18">
          <mxGeometry relative="1" as="geometry" />
        </mxCell>
        <mxCell id="1ziUDIRCh945kT0CxWAz-30" style="edgeStyle=orthogonalEdgeStyle;rounded=0;orthogonalLoop=1;jettySize=auto;html=1;exitX=0.5;exitY=1;exitDx=0;exitDy=0;entryX=0.5;entryY=0;entryDx=0;entryDy=0;" edge="1" parent="1ziUDIRCh945kT0CxWAz-1" source="1ziUDIRCh945kT0CxWAz-18" target="1ziUDIRCh945kT0CxWAz-27">
          <mxGeometry relative="1" as="geometry">
            <Array as="points">
              <mxPoint x="240" y="290" />
            </Array>
          </mxGeometry>
        </mxCell>
        <mxCell id="1ziUDIRCh945kT0CxWAz-34" style="edgeStyle=orthogonalEdgeStyle;rounded=0;orthogonalLoop=1;jettySize=auto;html=1;exitX=1;exitY=0.5;exitDx=0;exitDy=0;entryX=0;entryY=0.5;entryDx=0;entryDy=0;" edge="1" parent="1ziUDIRCh945kT0CxWAz-1" source="1ziUDIRCh945kT0CxWAz-4" target="1ziUDIRCh945kT0CxWAz-33">
          <mxGeometry relative="1" as="geometry" />
        </mxCell>
        <mxCell id="1ziUDIRCh945kT0CxWAz-37" style="edgeStyle=orthogonalEdgeStyle;rounded=0;orthogonalLoop=1;jettySize=auto;html=1;exitX=0.5;exitY=1;exitDx=0;exitDy=0;entryX=1;entryY=0.5;entryDx=0;entryDy=0;" edge="1" parent="1ziUDIRCh945kT0CxWAz-1" source="1ziUDIRCh945kT0CxWAz-33" target="1ziUDIRCh945kT0CxWAz-36">
          <mxGeometry relative="1" as="geometry" />
        </mxCell>
        <mxCell id="1ziUDIRCh945kT0CxWAz-39" style="edgeStyle=orthogonalEdgeStyle;rounded=0;orthogonalLoop=1;jettySize=auto;html=1;exitX=0.5;exitY=1;exitDx=0;exitDy=0;entryX=-0.01;entryY=0.4;entryDx=0;entryDy=0;entryPerimeter=0;" edge="1" parent="1ziUDIRCh945kT0CxWAz-1" source="1ziUDIRCh945kT0CxWAz-36" target="1ziUDIRCh945kT0CxWAz-38">
          <mxGeometry relative="1" as="geometry" />
        </mxCell>
        <mxCell id="1ziUDIRCh945kT0CxWAz-35" value="&lt;div&gt;&lt;pre style=&quot;font-family: &amp;quot;JetBrains Mono&amp;quot;, monospace;&quot;&gt;&lt;font style=&quot;color: light-dark(rgb(252, 255, 253), rgb(255, 255, 255)); font-size: 10px;&quot;&gt;https://api.hubapi.com/oauth/v1/token&lt;/font&gt;&lt;/pre&gt;&lt;/div&gt;" style="text;html=1;align=center;verticalAlign=middle;resizable=0;points=[];autosize=1;strokeColor=none;fillColor=none;" vertex="1" parent="1">
          <mxGeometry x="379" y="492" width="230" height="50" as="geometry" />
        </mxCell>
        <mxCell id="1ziUDIRCh945kT0CxWAz-41" value="WEBHOOK" style="swimlane;html=1;startSize=20;" vertex="1" parent="1">
          <mxGeometry x="740" y="70" width="160" height="730" as="geometry" />
        </mxCell>
        <mxCell id="1ziUDIRCh945kT0CxWAz-43" value="&lt;span style=&quot;font-size: 8px;&quot;&gt;Gera o corpo json a ser enviado para o evento de Webhook na API&lt;/span&gt;" style="rounded=1;whiteSpace=wrap;html=1;" vertex="1" parent="1ziUDIRCh945kT0CxWAz-41">
          <mxGeometry x="40" y="430" width="100" height="60" as="geometry" />
        </mxCell>
        <mxCell id="1ziUDIRCh945kT0CxWAz-45" style="edgeStyle=orthogonalEdgeStyle;rounded=0;orthogonalLoop=1;jettySize=auto;html=1;exitX=1;exitY=0.5;exitDx=0;exitDy=0;entryX=0.5;entryY=0;entryDx=0;entryDy=0;" edge="1" parent="1" source="1ziUDIRCh945kT0CxWAz-14" target="1ziUDIRCh945kT0CxWAz-43">
          <mxGeometry relative="1" as="geometry" />
        </mxCell>
        <mxCell id="1ziUDIRCh945kT0CxWAz-46" style="edgeStyle=orthogonalEdgeStyle;rounded=0;orthogonalLoop=1;jettySize=auto;html=1;exitX=1;exitY=0.5;exitDx=0;exitDy=0;entryX=0.01;entryY=0.367;entryDx=0;entryDy=0;entryPerimeter=0;" edge="1" parent="1" source="1ziUDIRCh945kT0CxWAz-38" target="1ziUDIRCh945kT0CxWAz-43">
          <mxGeometry relative="1" as="geometry">
            <Array as="points">
              <mxPoint x="750" y="670" />
              <mxPoint x="750" y="522" />
            </Array>
          </mxGeometry>
        </mxCell>
        <mxCell id="1ziUDIRCh945kT0CxWAz-48" style="edgeStyle=orthogonalEdgeStyle;rounded=0;orthogonalLoop=1;jettySize=auto;html=1;exitX=0.5;exitY=1;exitDx=0;exitDy=0;entryX=1;entryY=0.75;entryDx=0;entryDy=0;" edge="1" parent="1" source="1ziUDIRCh945kT0CxWAz-43" target="1ziUDIRCh945kT0CxWAz-47">
          <mxGeometry relative="1" as="geometry" />
        </mxCell>
        <mxCell id="1ziUDIRCh945kT0CxWAz-49" value="HUBSPOT" style="rounded=1;whiteSpace=wrap;html=1;" vertex="1" parent="1">
          <mxGeometry x="580" y="20" width="320" height="30" as="geometry" />
        </mxCell>
        <mxCell id="1ziUDIRCh945kT0CxWAz-50" value="SIM" style="text;html=1;align=center;verticalAlign=middle;resizable=0;points=[];autosize=1;strokeColor=none;fillColor=none;" vertex="1" parent="1">
          <mxGeometry x="466" y="373" width="40" height="30" as="geometry" />
        </mxCell>
        <mxCell id="1ziUDIRCh945kT0CxWAz-51" value="NAO" style="text;html=1;align=center;verticalAlign=middle;resizable=0;points=[];autosize=1;strokeColor=none;fillColor=none;" vertex="1" parent="1">
          <mxGeometry x="310" y="448" width="50" height="30" as="geometry" />
        </mxCell>
      </root>
    </mxGraphModel>
  </diagram>
</mxfile>
